<?xml version="1.0" encoding="UTF-8" standalone="no"?>
<svg
   xmlns:dc="http://purl.org/dc/elements/1.1/"
   xmlns:cc="http://creativecommons.org/ns#"
   xmlns:rdf="http://www.w3.org/1999/02/22-rdf-syntax-ns#"
   xmlns:svg="http://www.w3.org/2000/svg"
   xmlns="http://www.w3.org/2000/svg"
   viewBox="0 0 555.11249 511.85001"
   height="511.85001"
   width="555.11249"
   xml:space="preserve"
   version="1.1"
   id="svg2"><metadata
     id="metadata8"><rdf:RDF><cc:Work
         rdf:about=""><dc:format>image/svg+xml</dc:format><dc:type
           rdf:resource="http://purl.org/dc/dcmitype/StillImage" /><dc:title></dc:title></cc:Work></rdf:RDF></metadata><defs
     id="defs6"><clipPath
       id="clipPath18"
       clipPathUnits="userSpaceOnUse"><path
         id="path20"
         d="m 3704.21,2518.31 c -105.17,168.39 -260.78,321.62 -471.52,323.39 -225.06,1.9 -450.66,-137.12 -601.78,-297.36 -97.83,-103.75 -198.55,-204.8 -298.2,-306.8 -11.75,-12.03 -25.81,-23.65 -36.13,-36.97 -15.54,-20.1 10.82,-38.38 21.56,-49.22 48.94,-49.33 97.89,-98.69 146.82,-148.04 47.78,-48.19 95.58,-96.37 143.37,-144.57 32.92,-33.19 50.22,-11.51 77.52,16.44 95.38,97.6 190.77,195.22 286.16,292.83 97.32,99.59 195.11,-44.27 260.29,-109.74 85.49,-85.9 171,-171.8 256.48,-257.68 34.14,-34.3 -18.88,-87.34 -53.02,-53.03 -124.16,124.73 -248.32,249.46 -372.48,374.2 -26.21,26.31 -79.69,-49.2 -92.8,-62.6 -55,-56.28 -110,-112.59 -165.02,-168.88 -33.22,-33.99 -66.42,-67.99 -99.64,-101.97 -51.1,-52.29 -112.04,-21.41 -154.03,20.93 -96.73,97.54 -193.46,195.08 -290.19,292.62 -42.15,42.5 -66.07,102.58 -17.06,152.75 41.16,42.13 82.32,84.24 123.47,126.37 152.83,156.41 295.54,322.9 489.93,429.78 137.39,75.53 295.26,124.93 453.05,98.78 102.46,-17 190.94,-63.4 267.01,-126.78 -275.74,461.91 -780.45,771.31 -1357.55,771.31 -872.67,0 -1580.001,-707.35 -1580.001,-1580 0,-200.86 37.531,-392.97 105.879,-569.75 105.195,-168.61 260.912,-322.19 471.882,-323.96 225.04,-1.9 450.68,137.13 601.77,297.36 97.82,103.77 198.56,204.82 298.2,306.8 11.76,12.05 25.81,23.65 36.14,36.99 15.53,20.08 -10.82,38.36 -21.57,49.2 -48.93,49.35 -97.88,98.69 -146.81,148.04 -47.79,48.19 -95.58,96.39 -143.37,144.58 -32.92,33.2 -50.23,11.5 -77.52,-16.43 -95.38,-97.62 -190.77,-195.24 -286.15,-292.83 -97.33,-99.61 -195.13,44.26 -260.31,109.74 -85.48,85.88 -170.98,171.78 -256.473,257.68 -34.148,34.3 18.879,87.34 53.033,53.03 124.16,-124.73 248.32,-249.48 372.48,-374.2 26.2,-26.33 79.68,49.2 92.78,62.59 55,56.29 110.01,112.58 165.02,168.87 33.22,34.01 66.44,67.99 99.66,101.99 51.08,52.27 112.03,21.41 154.02,-20.95 96.73,-97.54 193.46,-195.08 290.19,-292.62 42.15,-42.5 66.07,-102.58 17.06,-152.73 -41.16,-42.13 -82.32,-84.26 -123.47,-126.39 -152.83,-156.41 -295.54,-322.89 -489.94,-429.77 -137.38,-75.54 -295.24,-124.939 -453.05,-98.77 -97.2,16.12 -181.826,58.71 -255.212,117.17 43.125,-68.1 91.308,-132.671 144.022,-193.198 289.66,-332.383 716.2,-542.442 1191.74,-542.442 872.67,0 1579.99,707.34 1579.99,1580 0,191.25 -33.98,374.56 -96.23,544.24 z" /></clipPath><linearGradient
       id="linearGradient22"
       spreadMethod="pad"
       gradientTransform="matrix(-1.381e-4,3159.99,3159.99,1.381e-4,2220.45,394.07)"
       gradientUnits="userSpaceOnUse"
       y2="0"
       x2="1"
       y1="0"
       x1="0"><stop
         id="stop24"
         offset="0"
         style="stop-opacity:1;stop-color:#244e92" /><stop
         id="stop26"
         offset="1"
         style="stop-opacity:1;stop-color:#85d38e" /></linearGradient></defs><g
     transform="matrix(1.25,0,0,-1.25,0,511.85)"
     id="g10"><g
       transform="scale(0.1,0.1)"
       id="g12"><g
         id="g14"><g
           clip-path="url(#clipPath18)"
           id="g16"><path
             id="path28"
             style="fill:url(#linearGradient22);fill-opacity:1;fill-rule:nonzero;stroke:none"
             d="m 3704.21,2518.31 c -105.17,168.39 -260.78,321.62 -471.52,323.39 -225.06,1.9 -450.66,-137.12 -601.78,-297.36 -97.83,-103.75 -198.55,-204.8 -298.2,-306.8 -11.75,-12.03 -25.81,-23.65 -36.13,-36.97 -15.54,-20.1 10.82,-38.38 21.56,-49.22 48.94,-49.33 97.89,-98.69 146.82,-148.04 47.78,-48.19 95.58,-96.37 143.37,-144.57 32.92,-33.19 50.22,-11.51 77.52,16.44 95.38,97.6 190.77,195.22 286.16,292.83 97.32,99.59 195.11,-44.27 260.29,-109.74 85.49,-85.9 171,-171.8 256.48,-257.68 34.14,-34.3 -18.88,-87.34 -53.02,-53.03 -124.16,124.73 -248.32,249.46 -372.48,374.2 -26.21,26.31 -79.69,-49.2 -92.8,-62.6 -55,-56.28 -110,-112.59 -165.02,-168.88 -33.22,-33.99 -66.42,-67.99 -99.64,-101.97 -51.1,-52.29 -112.04,-21.41 -154.03,20.93 -96.73,97.54 -193.46,195.08 -290.19,292.62 -42.15,42.5 -66.07,102.58 -17.06,152.75 41.16,42.13 82.32,84.24 123.47,126.37 152.83,156.41 295.54,322.9 489.93,429.78 137.39,75.53 295.26,124.93 453.05,98.78 102.46,-17 190.94,-63.4 267.01,-126.78 -275.74,461.91 -780.45,771.31 -1357.55,771.31 -872.67,0 -1580.001,-707.35 -1580.001,-1580 0,-200.86 37.531,-392.97 105.879,-569.75 105.195,-168.61 260.912,-322.19 471.882,-323.96 225.04,-1.9 450.68,137.13 601.77,297.36 97.82,103.77 198.56,204.82 298.2,306.8 11.76,12.05 25.81,23.65 36.14,36.99 15.53,20.08 -10.82,38.36 -21.57,49.2 -48.93,49.35 -97.88,98.69 -146.81,148.04 -47.79,48.19 -95.58,96.39 -143.37,144.58 -32.92,33.2 -50.23,11.5 -77.52,-16.43 -95.38,-97.62 -190.77,-195.24 -286.15,-292.83 -97.33,-99.61 -195.13,44.26 -260.31,109.74 -85.48,85.88 -170.98,171.78 -256.473,257.68 -34.148,34.3 18.879,87.34 53.033,53.03 124.16,-124.73 248.32,-249.48 372.48,-374.2 26.2,-26.33 79.68,49.2 92.78,62.59 55,56.29 110.01,112.58 165.02,168.87 33.22,34.01 66.44,67.99 99.66,101.99 51.08,52.27 112.03,21.41 154.02,-20.95 96.73,-97.54 193.46,-195.08 290.19,-292.62 42.15,-42.5 66.07,-102.58 17.06,-152.73 -41.16,-42.13 -82.32,-84.26 -123.47,-126.39 -152.83,-156.41 -295.54,-322.89 -489.94,-429.77 -137.38,-75.54 -295.24,-124.939 -453.05,-98.77 -97.2,16.12 -181.826,58.71 -255.212,117.17 43.125,-68.1 91.308,-132.671 144.022,-193.198 289.66,-332.383 716.2,-542.442 1191.74,-542.442 872.67,0 1579.99,707.34 1579.99,1580 0,191.25 -33.98,374.56 -96.23,544.24" /></g></g></g></g></svg>